<mxfile host="app.diagrams.net" agent="Mozilla/5.0 (Windows NT 10.0; Win64; x64) AppleWebKit/537.36 (KHTML, like Gecko) Chrome/139.0.0.0 Safari/537.36" version="27.0.3">
  <diagram name="Page-1" id="7wEtmhICzrCNyqbmkadV">
    <mxGraphModel dx="1226" dy="660" grid="1" gridSize="10" guides="1" tooltips="1" connect="1" arrows="1" fold="1" page="1" pageScale="1" pageWidth="850" pageHeight="1100" math="0" shadow="0">
      <root>
        <mxCell id="0" />
        <mxCell id="1" parent="0" />
        <mxCell id="hYU7dxY_UMT3ooDo4hWc-16" value="Availability Zone" style="fillColor=none;strokeColor=#147EBA;dashed=1;verticalAlign=top;fontStyle=0;fontColor=#147EBA;whiteSpace=wrap;html=1;" vertex="1" parent="1">
          <mxGeometry x="134" y="80" width="130" height="200" as="geometry" />
        </mxCell>
        <mxCell id="hYU7dxY_UMT3ooDo4hWc-17" value="Availability Zone" style="fillColor=none;strokeColor=#147EBA;dashed=1;verticalAlign=top;fontStyle=0;fontColor=#147EBA;whiteSpace=wrap;html=1;" vertex="1" parent="1">
          <mxGeometry x="318" y="80" width="322" height="520" as="geometry" />
        </mxCell>
        <mxCell id="hYU7dxY_UMT3ooDo4hWc-18" value="Availability Zone" style="fillColor=none;strokeColor=#147EBA;dashed=1;verticalAlign=top;fontStyle=0;fontColor=#147EBA;whiteSpace=wrap;html=1;" vertex="1" parent="1">
          <mxGeometry x="700" y="80" width="130" height="200" as="geometry" />
        </mxCell>
        <mxCell id="hYU7dxY_UMT3ooDo4hWc-1" value="Cockroach&amp;nbsp;&lt;div&gt;Database&lt;/div&gt;&lt;div&gt;Node&lt;/div&gt;" style="sketch=0;points=[[0,0,0],[0.25,0,0],[0.5,0,0],[0.75,0,0],[1,0,0],[0,1,0],[0.25,1,0],[0.5,1,0],[0.75,1,0],[1,1,0],[0,0.25,0],[0,0.5,0],[0,0.75,0],[1,0.25,0],[1,0.5,0],[1,0.75,0]];outlineConnect=0;fontColor=#232F3E;fillColor=#C925D1;strokeColor=#ffffff;dashed=0;verticalLabelPosition=bottom;verticalAlign=top;align=center;html=1;fontSize=12;fontStyle=0;aspect=fixed;shape=mxgraph.aws4.resourceIcon;resIcon=mxgraph.aws4.database;" vertex="1" parent="1">
          <mxGeometry x="726" y="120" width="78" height="78" as="geometry" />
        </mxCell>
        <mxCell id="hYU7dxY_UMT3ooDo4hWc-25" style="edgeStyle=orthogonalEdgeStyle;rounded=0;orthogonalLoop=1;jettySize=auto;html=1;" edge="1" parent="1" source="hYU7dxY_UMT3ooDo4hWc-4" target="hYU7dxY_UMT3ooDo4hWc-10">
          <mxGeometry relative="1" as="geometry" />
        </mxCell>
        <mxCell id="hYU7dxY_UMT3ooDo4hWc-4" value="Load Balancer&lt;div&gt;(HA Proxy)&lt;/div&gt;" style="sketch=0;outlineConnect=0;fontColor=#232F3E;gradientColor=none;fillColor=#8C4FFF;strokeColor=none;dashed=0;verticalLabelPosition=bottom;verticalAlign=top;align=center;html=1;fontSize=12;fontStyle=0;aspect=fixed;pointerEvents=1;shape=mxgraph.aws4.classic_load_balancer;" vertex="1" parent="1">
          <mxGeometry x="440" y="280" width="78" height="78" as="geometry" />
        </mxCell>
        <mxCell id="hYU7dxY_UMT3ooDo4hWc-19" style="edgeStyle=orthogonalEdgeStyle;rounded=0;orthogonalLoop=1;jettySize=auto;html=1;" edge="1" parent="1" source="hYU7dxY_UMT3ooDo4hWc-6" target="hYU7dxY_UMT3ooDo4hWc-4">
          <mxGeometry relative="1" as="geometry" />
        </mxCell>
        <mxCell id="hYU7dxY_UMT3ooDo4hWc-6" value="Application&amp;nbsp;&lt;div&gt;Server&lt;div&gt;(EC2 Instance)&lt;/div&gt;&lt;/div&gt;" style="outlineConnect=0;dashed=0;verticalLabelPosition=bottom;verticalAlign=top;align=center;html=1;shape=mxgraph.aws3.ec2;fillColor=#F58534;gradientColor=none;" vertex="1" parent="1">
          <mxGeometry x="454" y="440" width="50" height="60" as="geometry" />
        </mxCell>
        <mxCell id="hYU7dxY_UMT3ooDo4hWc-9" value="Cockroach&amp;nbsp;&lt;div&gt;Database&lt;/div&gt;&lt;div&gt;Node&lt;/div&gt;" style="sketch=0;points=[[0,0,0],[0.25,0,0],[0.5,0,0],[0.75,0,0],[1,0,0],[0,1,0],[0.25,1,0],[0.5,1,0],[0.75,1,0],[1,1,0],[0,0.25,0],[0,0.5,0],[0,0.75,0],[1,0.25,0],[1,0.5,0],[1,0.75,0]];outlineConnect=0;fontColor=#232F3E;fillColor=#C925D1;strokeColor=#ffffff;dashed=0;verticalLabelPosition=bottom;verticalAlign=top;align=center;html=1;fontSize=12;fontStyle=0;aspect=fixed;shape=mxgraph.aws4.resourceIcon;resIcon=mxgraph.aws4.database;" vertex="1" parent="1">
          <mxGeometry x="160" y="120" width="78" height="78" as="geometry" />
        </mxCell>
        <mxCell id="hYU7dxY_UMT3ooDo4hWc-10" value="Cockroach&amp;nbsp;&lt;div&gt;Database&lt;/div&gt;&lt;div&gt;Node&lt;/div&gt;" style="sketch=0;points=[[0,0,0],[0.25,0,0],[0.5,0,0],[0.75,0,0],[1,0,0],[0,1,0],[0.25,1,0],[0.5,1,0],[0.75,1,0],[1,1,0],[0,0.25,0],[0,0.5,0],[0,0.75,0],[1,0.25,0],[1,0.5,0],[1,0.75,0]];outlineConnect=0;fontColor=#232F3E;fillColor=#C925D1;strokeColor=#ffffff;dashed=0;verticalLabelPosition=bottom;verticalAlign=top;align=center;html=1;fontSize=12;fontStyle=0;aspect=fixed;shape=mxgraph.aws4.resourceIcon;resIcon=mxgraph.aws4.database;" vertex="1" parent="1">
          <mxGeometry x="440" y="120" width="78" height="78" as="geometry" />
        </mxCell>
        <mxCell id="hYU7dxY_UMT3ooDo4hWc-21" style="edgeStyle=orthogonalEdgeStyle;rounded=0;orthogonalLoop=1;jettySize=auto;html=1;" edge="1" parent="1" source="hYU7dxY_UMT3ooDo4hWc-13" target="hYU7dxY_UMT3ooDo4hWc-4">
          <mxGeometry relative="1" as="geometry">
            <Array as="points">
              <mxPoint x="383" y="400" />
              <mxPoint x="479" y="400" />
            </Array>
          </mxGeometry>
        </mxCell>
        <mxCell id="hYU7dxY_UMT3ooDo4hWc-13" value="Application&amp;nbsp;&lt;div&gt;Server&lt;div&gt;(EC2 Instance)&lt;/div&gt;&lt;/div&gt;" style="outlineConnect=0;dashed=0;verticalLabelPosition=bottom;verticalAlign=top;align=center;html=1;shape=mxgraph.aws3.ec2;fillColor=#F58534;gradientColor=none;" vertex="1" parent="1">
          <mxGeometry x="358" y="440" width="50" height="60" as="geometry" />
        </mxCell>
        <mxCell id="hYU7dxY_UMT3ooDo4hWc-20" style="edgeStyle=orthogonalEdgeStyle;rounded=0;orthogonalLoop=1;jettySize=auto;html=1;" edge="1" parent="1" source="hYU7dxY_UMT3ooDo4hWc-15" target="hYU7dxY_UMT3ooDo4hWc-4">
          <mxGeometry relative="1" as="geometry">
            <Array as="points">
              <mxPoint x="575" y="400" />
              <mxPoint x="479" y="400" />
            </Array>
          </mxGeometry>
        </mxCell>
        <mxCell id="hYU7dxY_UMT3ooDo4hWc-15" value="Application&amp;nbsp;&lt;div&gt;Server&lt;div&gt;(EC2 Instance)&lt;/div&gt;&lt;/div&gt;" style="outlineConnect=0;dashed=0;verticalLabelPosition=bottom;verticalAlign=top;align=center;html=1;shape=mxgraph.aws3.ec2;fillColor=#F58534;gradientColor=none;" vertex="1" parent="1">
          <mxGeometry x="550" y="440" width="50" height="60" as="geometry" />
        </mxCell>
        <mxCell id="hYU7dxY_UMT3ooDo4hWc-22" style="edgeStyle=orthogonalEdgeStyle;rounded=0;orthogonalLoop=1;jettySize=auto;html=1;entryX=0;entryY=0.5;entryDx=0;entryDy=0;entryPerimeter=0;" edge="1" parent="1" source="hYU7dxY_UMT3ooDo4hWc-4" target="hYU7dxY_UMT3ooDo4hWc-1">
          <mxGeometry relative="1" as="geometry" />
        </mxCell>
        <mxCell id="hYU7dxY_UMT3ooDo4hWc-24" style="edgeStyle=orthogonalEdgeStyle;rounded=0;orthogonalLoop=1;jettySize=auto;html=1;entryX=1;entryY=0.5;entryDx=0;entryDy=0;entryPerimeter=0;" edge="1" parent="1" source="hYU7dxY_UMT3ooDo4hWc-4" target="hYU7dxY_UMT3ooDo4hWc-9">
          <mxGeometry relative="1" as="geometry" />
        </mxCell>
        <mxCell id="hYU7dxY_UMT3ooDo4hWc-26" value="Region" style="points=[[0,0],[0.25,0],[0.5,0],[0.75,0],[1,0],[1,0.25],[1,0.5],[1,0.75],[1,1],[0.75,1],[0.5,1],[0.25,1],[0,1],[0,0.75],[0,0.5],[0,0.25]];outlineConnect=0;gradientColor=none;html=1;whiteSpace=wrap;fontSize=12;fontStyle=0;container=1;pointerEvents=0;collapsible=0;recursiveResize=0;shape=mxgraph.aws4.group;grIcon=mxgraph.aws4.group_region;strokeColor=#00A4A6;fillColor=none;verticalAlign=top;align=left;spacingLeft=30;fontColor=#147EBA;dashed=1;" vertex="1" parent="1">
          <mxGeometry x="120" y="40" width="720" height="580" as="geometry" />
        </mxCell>
      </root>
    </mxGraphModel>
  </diagram>
</mxfile>
